<svg xmlns="http://www.w3.org/2000/svg" width="233" height="44.59" viewBox="0 0 233 44.59"><path d="M70.922 39.035c0 .941-.23 1.691-.688 2.215-.459.523-1.086.793-1.901.793-.501 0-.96-.125-1.335-.375-.397-.252-.69-.605-.898-1.064s-.312-.98-.312-1.588c0-.939.23-1.691.689-2.213.459-.523 1.085-.795 1.9-.795.793 0 1.42.271 1.878.795.436.564.667 1.295.667 2.232zm-4.594 0c0 .795.167 1.42.522 1.859.355.438.855.668 1.482.668.648 0 1.128-.23 1.482-.668.355-.439.522-1.064.522-1.859 0-.793-.166-1.418-.522-1.857-.354-.439-.856-.666-1.482-.666-.647 0-1.127.227-1.482.666-.333.418-.522 1.045-.522 1.857zm8.372-2.902v2.547h3.676v-2.547h.521v5.807h-.521v-2.799H74.7v2.799h-.522v-5.807h.522zm11.798 5.806h-.521v-5.303H83.93c-.103 1.396-.229 2.482-.396 3.215-.146.73-.355 1.273-.605 1.627-.25.355-.563.523-.94.523a1.58 1.58 0 0 1-.355-.043v-.48a.959.959 0 0 0 .292.043c.397 0 .731-.418.982-1.275.251-.855.438-2.213.563-4.092h3.049v5.785h-.022zm7.1 0l-.125-.92h-.043c-.292.375-.584.648-.898.795a2.535 2.535 0 0 1-1.086.229c-.563 0-1.001-.145-1.336-.438-.312-.293-.48-.689-.48-1.211 0-.564.23-1.002.71-1.314.481-.314 1.149-.48 2.047-.502l1.106-.041v-.377c0-.543-.104-.961-.333-1.254-.23-.27-.585-.416-1.085-.416-.543 0-1.085.146-1.671.438l-.188-.459c.647-.293 1.274-.438 1.899-.438.647 0 1.107.166 1.421.5.312.334.479.857.479 1.545v3.863h-.417zm-2.13-.377c.626 0 1.106-.168 1.461-.521.355-.355.543-.857.543-1.482v-.564l-1.023.041c-.814.043-1.399.168-1.733.377-.355.209-.522.543-.522 1.002 0 .355.104.648.334.855.23.189.542.292.94.292zm6.555-5.429v4.197l-.042 1.086 3.446-5.283h.709v5.807h-.501v-4.178l.021-1.125-3.446 5.281h-.689v-5.805h.501v.02h.001zm1.797-.813c-.522 0-.94-.125-1.211-.355-.272-.23-.438-.625-.481-1.148h.461c.061.398.166.668.354.836.187.166.479.25.876.25s.688-.084.876-.25c.189-.168.314-.438.355-.814h.479c-.081.979-.644 1.481-1.709 1.481zm6.431.813v2.547h3.674v-2.547h.522v5.807h-.522v-2.799h-3.674v2.799h-.522v-5.807h.522zm15.409 0h.648l-2.61 2.82 2.776 2.986h-.709l-2.736-2.945v2.945h-.522v-5.807h.544v2.82l2.609-2.819zm5.992 5.91c-.898 0-1.546-.334-1.962-1.002h-.043l.021.438c.022.271.022.543.022.857v2.234h-.523v-8.438h.438l.104.836h.042c.396-.625 1.044-.939 1.922-.939.771 0 1.376.25 1.794.771.418.523.628 1.254.628 2.256 0 .961-.21 1.691-.648 2.213-.459.524-1.042.774-1.795.774zm0-.459c.585 0 1.045-.23 1.378-.668.335-.439.48-1.064.48-1.859 0-1.713-.605-2.545-1.837-2.545-.668 0-1.17.186-1.482.562-.313.375-.48.98-.48 1.816v.166c0 .898.147 1.545.46 1.943.293.376.793.585 1.481.585zm8.019.459c-.836 0-1.504-.25-1.963-.773-.479-.52-.71-1.252-.71-2.191 0-.918.23-1.672.688-2.234.46-.564 1.064-.836 1.837-.836.689 0 1.233.232 1.608.711.397.48.585 1.127.585 1.941v.418h-4.176c0 .795.188 1.4.564 1.816.375.418.877.627 1.565.627.334 0 .627-.021.877-.062s.563-.146.96-.293v.48a4.99 4.99 0 0 1-.897.293 3.501 3.501 0 0 1-.938.103zm-.168-5.555c-.562 0-1.002.189-1.336.543-.333.375-.543.898-.584 1.586h3.59c0-.666-.145-1.189-.438-1.586-.292-.353-.711-.543-1.232-.543zm10.189 7.414h-.521v-1.963h-4.448v1.963h-.5v-2.465h.375a8.29 8.29 0 0 0 1.128-2.359c.271-.898.396-1.879.416-2.945h2.8v5.305h.772v2.465h-.022v-.001zm-1.294-2.464v-4.801h-1.796c-.083 1.92-.543 3.527-1.399 4.801h3.195zm4.677-5.305v4.197l-.041 1.086 3.445-5.283h.71v5.807h-.502v-4.178l.021-1.125-3.445 5.281h-.689v-5.805h.501v.02zm11.38.461h-1.941v5.346h-.522v-5.346h-1.984v-.461h4.428v.461h.019zm3.362 1.982h1.837c1.357 0 2.047.543 2.047 1.607 0 .543-.188.982-.565 1.295-.377.314-.919.459-1.65.459h-2.212v-5.805h.521v2.443h.022v.001zm0 .502v2.359h1.774c.501 0 .897-.105 1.148-.312.25-.209.396-.523.396-.939 0-.377-.125-.67-.354-.836-.23-.168-.648-.252-1.233-.252h-1.731v-.02zm5.429 2.861h-.522v-5.807h.522v5.807zm8.602-5.806v2.547h3.676v-2.547h.522v5.807h-.522v-2.799h-3.676v2.799h-.521v-5.807h.521zm11.317 5.806l-.125-.92h-.042c-.293.375-.585.648-.897.795a2.539 2.539 0 0 1-1.086.229c-.563 0-1.002-.145-1.336-.438-.313-.293-.48-.689-.48-1.211 0-.564.23-1.002.71-1.314.48-.314 1.148-.48 2.047-.502l1.105-.041v-.377c0-.543-.104-.961-.333-1.254-.23-.27-.585-.416-1.085-.416-.544 0-1.087.146-1.672.438l-.188-.459c.647-.293 1.274-.438 1.899-.438.648 0 1.108.166 1.421.5.313.334.479.857.479 1.545v3.863h-.417zm-2.13-.377c.626 0 1.107-.168 1.462-.521.354-.355.543-.857.543-1.482v-.564l-1.023.041c-.814.043-1.398.168-1.733.377-.354.209-.522.543-.522 1.002 0 .355.105.648.335.855.207.189.522.292.938.292zm13.677-5.429h.648l-2.609 2.82 2.776 2.986h-.711l-2.733-2.945v2.945h-.543v-5.807h.543v2.82l2.629-2.819zm7.016 5.806l-.125-.92h-.042c-.292.375-.584.648-.897.795a2.535 2.535 0 0 1-1.086.229c-.565 0-1.003-.145-1.336-.438-.314-.293-.479-.689-.479-1.211 0-.564.229-1.002.709-1.314.479-.314 1.15-.48 2.046-.502l1.106-.041v-.377c0-.543-.104-.961-.333-1.254-.231-.27-.584-.416-1.087-.416-.543 0-1.086.146-1.669.438l-.189-.459c.648-.293 1.276-.438 1.901-.438.647 0 1.105.166 1.419.5s.479.857.479 1.545v3.863h-.417zm-2.13-.377c.627 0 1.108-.168 1.461-.521.355-.355.544-.857.544-1.482v-.564l-1.023.041c-.815.043-1.399.168-1.732.377-.355.209-.522.543-.522 1.002 0 .355.105.648.335.855.226.189.54.292.937.292zm8.541.481c-.898 0-1.547-.334-1.965-1.002h-.042l.022.438c.02.271.02.543.02.857v2.234h-.521v-8.438h.438l.104.836h.041c.397-.625 1.045-.939 1.921-.939.772 0 1.378.25 1.797.771.417.523.624 1.254.624 2.256 0 .961-.207 1.691-.647 2.213-.457.524-1.063.774-1.792.774zm-.023-.459c.585 0 1.045-.23 1.379-.668.335-.439.479-1.064.479-1.859 0-1.713-.604-2.545-1.836-2.545-.668 0-1.171.186-1.484.562-.312.375-.479.98-.479 1.816v.166c0 .898.147 1.545.46 1.943.292.376.793.585 1.481.585zm9.355-4.99h-1.942v5.346h-.5v-5.346h-1.984v-.461h4.426v.461zm1.859-.461h.542l1.232 3.258c.377 1.002.606 1.672.71 2.025h.042c.147-.459.397-1.148.729-2.045l1.234-3.217h.543l-2.611 6.744c-.208.543-.375.918-.521 1.105a1.613 1.613 0 0 1-.503.439c-.187.105-.418.146-.688.146-.208 0-.438-.041-.668-.104v-.459a2.4 2.4 0 0 0 .668.082.907.907 0 0 0 .48-.125.99.99 0 0 0 .376-.396c.104-.189.25-.459.397-.855.145-.398.25-.648.292-.752l-2.254-5.846zM65.396 26.939V3.758h4.625l6.704 9.688 6.705-9.688h4.624v23.181H83.87V9.811l-7.166 10.255-7.167-10.255v17.148h-4.141v-.02zM91.562 3.758h5.044l6.137 9.414 6.115-9.414h5.044l-9.058 13.238v9.943h-4.182v-9.943l-9.1-13.238zm25.576 16.581c-.441-1.429-.651-3.108-.651-5 0-1.893.209-3.573.651-5.001.441-1.43 1.01-2.584 1.703-3.449a8.048 8.048 0 0 1 2.521-2.08c.987-.547 1.956-.903 2.879-1.071.945-.189 1.954-.274 3.047-.274 2.375 0 4.709.462 7.02 1.366v3.91c-2.208-1.008-4.414-1.535-6.663-1.535-1.05 0-1.934.084-2.669.273a6.147 6.147 0 0 0-2.164 1.071c-.715.527-1.239 1.368-1.62 2.501-.377 1.136-.544 2.566-.544 4.269 0 1.722.188 3.149.544 4.265.359 1.134.905 1.954 1.62 2.502.714.526 1.429.883 2.164 1.071.735.189 1.642.273 2.669.273 2.229 0 4.455-.503 6.663-1.535v3.889c-2.312.924-4.665 1.387-7.02 1.387-1.093 0-2.102-.084-3.047-.275-.945-.188-1.892-.545-2.879-1.07a8.633 8.633 0 0 1-2.521-2.08c-.694-.821-1.262-1.976-1.703-3.407zm22.065 6.6V3.758h8.912c2.712 0 4.834.651 6.326 1.932 1.514 1.282 2.27 3.133 2.27 5.528 0 3.532-1.702 5.821-5.085 6.853l6.094 8.869h-5.044l-5.527-8.176h-3.741v8.176h-4.205zm4.185-12.001h4.623c1.407 0 2.521-.25 3.319-.756.799-.501 1.199-1.45 1.199-2.856 0-1.43-.4-2.397-1.199-2.88-.798-.504-1.911-.735-3.319-.735h-4.623v7.227zm18.515 12.001V3.758h15.426v3.74h-11.243v5.862h9.75v3.931h-9.75v5.865h11.243v3.738h-15.426v.045zm20.427 0V3.758h8.007c3.593 0 6.306.987 8.177 2.964 1.849 1.975 2.793 4.854 2.793 8.658 0 3.782-.923 6.662-2.773 8.614-1.849 1.977-4.581 2.965-8.176 2.965h-8.027v-.02h-.001zm4.162-3.74h3.824c2.417 0 4.14-.612 5.191-1.829 1.05-1.22 1.597-3.216 1.597-5.989 0-2.793-.525-4.813-1.597-6.033-1.052-1.216-2.796-1.828-5.191-1.828h-3.824v15.679zm19.922 3.74V3.758h4.184v23.181h-4.184zm7.587-19V3.758H233v4.181h-7.44v19h-4.183v-19h-7.376zM39.1 1.986C38.307.893 36.553 0 35.203 0H2.455A2.461 2.461 0 0 0 0 2.455v3.89h42.267L39.1 1.986zm11.383 15.668l-5.167-7.111H0v26.281a2.46 2.46 0 0 0 2.455 2.455h32.749c1.35 0 3.104-.895 3.897-1.986l11.384-15.668c.791-1.092.791-2.879-.002-3.971zM8.577 33.898H6.646a1.934 1.934 0 0 1 0-3.868h1.931a1.934 1.934 0 1 1 0 3.868zm15.054 0h-8.194a1.934 1.934 0 0 1 0-3.868h8.194c1.068 0 1.931.867 1.931 1.934a1.933 1.933 0 0 1-1.931 1.934zm.401-9.66H6.646a1.933 1.933 0 1 1 0-3.867h17.386a1.933 1.933 0 0 1 0 3.867z" fill="#FFF"/></svg>