<svg xmlns="http://www.w3.org/2000/svg" width="512" height="512" viewBox="0 0 444.531 444.531"><path d="M231.401 222.122L92.651 360.878c-7.05 7.043-10.567 15.657-10.567 25.841 0 10.183 3.518 18.793 10.567 25.835l21.409 21.416c7.039 7.04 15.654 10.561 25.834 10.561s18.791-3.521 25.841-10.561l186.147-185.864c7.044-7.043 10.566-15.656 10.566-25.841s-3.521-18.791-10.566-25.837L165.736 10.564C158.686 3.521 150.076 0 139.895 0S121.1 3.521 114.061 10.564L92.652 31.976c-7.05 7.039-10.567 15.604-10.567 25.697 0 10.085 3.518 18.746 10.567 25.978l138.749 138.471z" data-original="#E0DFDF" class="active-path" data-old_color="rgb(224, 223, 223)" fill="#E0DFDF"/></svg>